<?xml version="1.0" encoding="UTF-8" standalone="no"?>
<svg
   height="48"
   viewBox="0 96 960 960"
   width="48"
   version="1.1"
   id="svg4"
   sodipodi:docname="location-svg.svg"
   inkscape:version="1.2.1 (9c6d41e410, 2022-07-14)"
   xmlns:inkscape="http://www.inkscape.org/namespaces/inkscape"
   xmlns:sodipodi="http://sodipodi.sourceforge.net/DTD/sodipodi-0.dtd"
   xmlns="http://www.w3.org/2000/svg"
   xmlns:svg="http://www.w3.org/2000/svg">
  <defs
     id="defs8" />
  <sodipodi:namedview
     id="namedview6"
     pagecolor="#ffffff"
     bordercolor="#000000"
     borderopacity="0.25"
     inkscape:showpageshadow="2"
     inkscape:pageopacity="0.0"
     inkscape:pagecheckerboard="0"
     inkscape:deskcolor="#d1d1d1"
     showgrid="false"
     inkscape:zoom="8.375"
     inkscape:cx="12.179104"
     inkscape:cy="20.358209"
     inkscape:window-width="1920"
     inkscape:window-height="991"
     inkscape:window-x="-9"
     inkscape:window-y="-9"
     inkscape:window-maximized="1"
     inkscape:current-layer="svg4" />
  <path
     d="M480.089 566Q509 566 529.5 545.411q20.5-20.588 20.5-49.5Q550 467 529.411 446.5q-20.588-20.5-49.5-20.5Q451 426 430.5 446.589q-20.5 20.588-20.5 49.5Q410 525 430.589 545.5q20.588 20.5 49.5 20.5ZM480 897q133-121 196.5-219.5T740 504q0-117.79-75.292-192.895Q589.417 236 480 236t-184.708 75.105Q220 386.21 220 504q0 75 65 173.5T480 897Zm0 79Q319 839 239.5 721.5T160 504q0-150 96.5-239T480 176q127 0 223.5 89T800 504q0 100-79.5 217.5T480 976Zm0-472Z"
     id="path2"
     style="fill:#ffffff" />
</svg>
