<svg id="Group_8" data-name="Group 8" xmlns="http://www.w3.org/2000/svg" width="22.18" height="22.18" viewBox="0 0 22.18 22.18">
  <path id="Path_1" data-name="Path 1" d="M11.09,0C8.078,0,7.7.013,6.518.067A8.141,8.141,0,0,0,3.826.582,5.436,5.436,0,0,0,1.861,1.861,5.435,5.435,0,0,0,.582,3.826,8.141,8.141,0,0,0,.067,6.518C.013,7.7,0,8.078,0,11.09s.013,3.39.067,4.572a8.141,8.141,0,0,0,.516,2.692,5.437,5.437,0,0,0,1.279,1.964A5.436,5.436,0,0,0,3.826,21.6a8.142,8.142,0,0,0,2.692.515c1.183.054,1.561.067,4.572.067s3.39-.013,4.572-.067a8.141,8.141,0,0,0,2.692-.515A5.671,5.671,0,0,0,21.6,18.355a8.141,8.141,0,0,0,.515-2.692c.054-1.183.067-1.561.067-4.572s-.013-3.39-.067-4.572A8.141,8.141,0,0,0,21.6,3.826a5.436,5.436,0,0,0-1.279-1.964A5.437,5.437,0,0,0,18.355.582,8.141,8.141,0,0,0,15.663.067C14.48.013,14.1,0,11.09,0Zm0,2c2.961,0,3.312.011,4.481.065a6.135,6.135,0,0,1,2.059.382,3.436,3.436,0,0,1,1.275.83,3.436,3.436,0,0,1,.83,1.275,6.135,6.135,0,0,1,.382,2.059c.053,1.169.065,1.52.065,4.481s-.011,3.312-.065,4.481a6.135,6.135,0,0,1-.382,2.059,3.673,3.673,0,0,1-2.1,2.1,6.135,6.135,0,0,1-2.059.382c-1.169.053-1.52.065-4.481.065s-3.312-.011-4.481-.065a6.134,6.134,0,0,1-2.059-.382,3.435,3.435,0,0,1-1.275-.83,3.436,3.436,0,0,1-.83-1.275,6.136,6.136,0,0,1-.382-2.059C2.01,14.4,2,14.051,2,11.09s.011-3.312.065-4.481a6.136,6.136,0,0,1,.382-2.059,3.436,3.436,0,0,1,.83-1.275,3.436,3.436,0,0,1,1.275-.83,6.135,6.135,0,0,1,2.059-.382C7.778,2.01,8.129,2,11.09,2" transform="translate(0)" fill="#fff"/>
  <path id="Path_2" data-name="Path 2" d="M169.1,127.232a3.7,3.7,0,1,1,3.7-3.7A3.7,3.7,0,0,1,169.1,127.232Zm0-9.392a5.695,5.695,0,1,0,5.695,5.695,5.695,5.695,0,0,0-5.695-5.695m7.251-.225a1.331,1.331,0,1,1-1.331-1.331,1.331,1.331,0,0,1,1.331,1.331" transform="translate(-158.013 -112.446)" fill="#fff"/>
</svg>
