<svg xmlns="http://www.w3.org/2000/svg" width="25.555" height="20.585" viewBox="0 0 25.555 20.585">
  <path id="Twitter-logo" d="M23.939,6.622c.016.223.016.447.016.672A14.748,14.748,0,0,1,9.037,22.082v0A14.937,14.937,0,0,1,1,19.748a10.757,10.757,0,0,0,1.248.075,10.587,10.587,0,0,0,6.512-2.229,5.244,5.244,0,0,1-4.9-3.609,5.27,5.27,0,0,0,2.367-.09A5.209,5.209,0,0,1,2.023,8.8V8.735a5.245,5.245,0,0,0,2.38.65,5.177,5.177,0,0,1-1.623-6.94,14.925,14.925,0,0,0,10.805,5.43A5.172,5.172,0,0,1,15.1,2.91a5.281,5.281,0,0,1,7.418.225,10.577,10.577,0,0,0,3.329-1.262,5.225,5.225,0,0,1-2.3,2.874,10.5,10.5,0,0,0,3.011-.818,10.6,10.6,0,0,1-2.616,2.692Z" transform="translate(-1 -1.497)" fill="#fff"/>
</svg>
